<svg width="200" height="60" viewBox="0 0 200 60" fill="none" xmlns="http://www.w3.org/2000/svg">
<rect x="9.5" y="10" width="40" height="40" rx="3.33333" fill="#02B14F"/>
<path d="M21 33.4508V37.7383C21 38.9874 22.0126 40 23.2617 40V40C24.5108 40 25.5234 38.9874 25.5234 37.7383V37.3371C25.5234 35.8665 26.7156 34.6743 28.1863 34.6743H29.4513C31.2923 34.6743 32.7847 33.1819 32.7847 31.3409V27.7833C32.7847 25.9424 31.2923 24.45 29.4513 24.45H23.225C21.9962 24.45 21 23.4538 21 22.225V22.225C21 20.9962 21.9962 20 23.225 20H34.6667C36.5076 20 38 21.4924 38 23.3333V26.7841C38 28.6251 36.5076 30.1175 34.6667 30.1175H24.3333C22.4924 30.1175 21 31.6099 21 33.4508Z" stroke="white" stroke-width="1.66667"/>
<path d="M65.1542 31.3599C65.9872 31.3599 66.7132 31.2586 67.3323 31.056C67.9514 30.8421 68.4636 30.5438 68.8688 30.1611C69.2853 29.7672 69.5949 29.2944 69.7975 28.7428C70.0001 28.18 70.1014 27.5553 70.1014 26.8686C70.1014 26.2158 70.0001 25.6248 69.7975 25.0957C69.5949 24.5667 69.2909 24.1164 68.8857 23.745C68.4805 23.3735 67.9683 23.0921 67.3492 22.9007C66.7301 22.6981 65.9984 22.5968 65.1542 22.5968H61.7604V31.3599H65.1542ZM65.1542 19.0848C66.7864 19.0848 68.1991 19.2762 69.3923 19.6589C70.5854 20.0416 71.5704 20.5763 72.3471 21.2629C73.1238 21.9496 73.6978 22.7713 74.0693 23.7281C74.452 24.6849 74.6434 25.7317 74.6434 26.8686C74.6434 28.0506 74.4464 29.1368 74.0524 30.1274C73.6584 31.1067 73.0675 31.9509 72.2795 32.6601C71.4916 33.3692 70.501 33.9208 69.3078 34.3148C68.1259 34.7087 66.7414 34.9057 65.1542 34.9057H61.7604V43.5H57.2184V19.0848H65.1542ZM100.06 31.2924C100.06 33.0822 99.7612 34.7425 99.1646 36.2734C98.5793 37.793 97.7463 39.11 96.6657 40.2244C95.5851 41.3388 94.285 42.2111 92.7654 42.8415C91.2457 43.4606 89.5573 43.7702 87.7 43.7702C85.8539 43.7702 84.1711 43.4606 82.6515 42.8415C81.1318 42.2111 79.8261 41.3388 78.7342 40.2244C77.6536 39.11 76.815 37.793 76.2184 36.2734C75.6218 34.7425 75.3235 33.0822 75.3235 31.2924C75.3235 29.5026 75.6218 27.8479 76.2184 26.3283C76.815 24.7974 77.6536 23.4748 78.7342 22.3604C79.8261 21.246 81.1318 20.3793 82.6515 19.7602C84.1711 19.1298 85.8539 18.8147 87.7 18.8147C88.9382 18.8147 90.1032 18.961 91.1951 19.2537C92.287 19.5351 93.2888 19.9403 94.2005 20.4693C95.1123 20.9871 95.9284 21.6231 96.6488 22.3773C97.3805 23.1202 97.9996 23.9532 98.5061 24.8762C99.0127 25.7993 99.3954 26.8011 99.6543 27.8817C99.9244 28.9623 100.06 30.0992 100.06 31.2924ZM95.4162 31.2924C95.4162 29.9529 95.2361 28.7541 94.8759 27.696C94.5157 26.6266 94.0036 25.7205 93.3394 24.9775C92.6753 24.2346 91.8648 23.6662 90.908 23.2722C89.9625 22.8782 88.8931 22.6812 87.7 22.6812C86.5068 22.6812 85.4318 22.8782 84.475 23.2722C83.5295 23.6662 82.719 24.2346 82.0436 24.9775C81.3795 25.7205 80.8673 26.6266 80.5071 27.696C80.1469 28.7541 79.9668 29.9529 79.9668 31.2924C79.9668 32.6319 80.1469 33.8364 80.5071 34.9057C80.8673 35.9638 81.3795 36.8643 82.0436 37.6073C82.719 38.3389 83.5295 38.9017 84.475 39.2957C85.4318 39.6897 86.5068 39.8867 87.7 39.8867C88.8931 39.8867 89.9625 39.6897 90.908 39.2957C91.8648 38.9017 92.6753 38.3389 93.3394 37.6073C94.0036 36.8643 94.5157 35.9638 94.8759 34.9057C95.2361 33.8364 95.4162 32.6319 95.4162 31.2924ZM115.699 23.5255C115.564 23.7619 115.417 23.9363 115.26 24.0489C115.113 24.1502 114.928 24.2009 114.702 24.2009C114.466 24.2009 114.207 24.1164 113.926 23.9476C113.656 23.7675 113.329 23.5705 112.946 23.3566C112.564 23.1427 112.113 22.9514 111.596 22.7825C111.089 22.6024 110.487 22.5124 109.789 22.5124C109.159 22.5124 108.607 22.5912 108.134 22.7488C107.662 22.8951 107.262 23.1033 106.936 23.3735C106.62 23.6437 106.384 23.9701 106.226 24.3528C106.069 24.7243 105.99 25.1351 105.99 25.5854C105.99 26.1595 106.148 26.6379 106.463 27.0206C106.789 27.4033 107.217 27.7297 107.746 27.9999C108.275 28.2701 108.877 28.5121 109.553 28.7259C110.228 28.9398 110.92 29.1706 111.629 29.4182C112.339 29.6546 113.031 29.936 113.706 30.2624C114.382 30.5776 114.984 30.9829 115.513 31.4781C116.042 31.9622 116.464 32.5588 116.779 33.2679C117.106 33.9771 117.269 34.8382 117.269 35.8513C117.269 36.9544 117.078 37.99 116.695 38.958C116.323 39.9148 115.772 40.7534 115.04 41.4738C114.32 42.183 113.436 42.7458 112.389 43.1623C111.342 43.5675 110.144 43.7702 108.793 43.7702C108.016 43.7702 107.251 43.6914 106.497 43.5338C105.742 43.3874 105.016 43.1736 104.318 42.8922C103.632 42.6107 102.985 42.273 102.377 41.8791C101.769 41.4851 101.229 41.0461 100.756 40.5621L102.09 38.384C102.202 38.2264 102.349 38.0969 102.529 37.9956C102.709 37.883 102.9 37.8268 103.103 37.8268C103.384 37.8268 103.688 37.945 104.014 38.1813C104.341 38.4065 104.729 38.6597 105.18 38.9411C105.63 39.2226 106.153 39.4815 106.75 39.7178C107.358 39.943 108.084 40.0555 108.928 40.0555C110.222 40.0555 111.224 39.7516 111.933 39.1438C112.643 38.5247 112.997 37.641 112.997 36.4929C112.997 35.8513 112.834 35.3278 112.507 34.9226C112.192 34.5174 111.77 34.1797 111.241 33.9095C110.712 33.6281 110.11 33.3917 109.434 33.2004C108.759 33.009 108.072 32.8008 107.375 32.5756C106.677 32.3505 105.99 32.0804 105.315 31.7652C104.639 31.45 104.037 31.0391 103.508 30.5326C102.979 30.0261 102.551 29.3957 102.225 28.6415C101.91 27.8761 101.752 26.9362 101.752 25.8218C101.752 24.9325 101.926 24.0658 102.275 23.2215C102.636 22.3773 103.153 21.6288 103.829 20.9759C104.504 20.323 105.337 19.7996 106.328 19.4056C107.318 19.0116 108.455 18.8147 109.738 18.8147C111.179 18.8147 112.507 19.0398 113.723 19.49C114.939 19.9403 115.974 20.5707 116.83 21.3811L115.699 23.5255ZM119.087 31.5626H127.833V35.0408H119.087V31.5626ZM139.063 31.3599C139.896 31.3599 140.622 31.2586 141.241 31.056C141.86 30.8421 142.372 30.5438 142.777 30.1611C143.194 29.7672 143.503 29.2944 143.706 28.7428C143.909 28.18 144.01 27.5553 144.01 26.8686C144.01 26.2158 143.909 25.6248 143.706 25.0957C143.503 24.5667 143.2 24.1164 142.794 23.745C142.389 23.3735 141.877 23.0921 141.258 22.9007C140.639 22.6981 139.907 22.5968 139.063 22.5968H135.669V31.3599H139.063ZM139.063 19.0848C140.695 19.0848 142.108 19.2762 143.301 19.6589C144.494 20.0416 145.479 20.5763 146.256 21.2629C147.032 21.9496 147.606 22.7713 147.978 23.7281C148.361 24.6849 148.552 25.7317 148.552 26.8686C148.552 28.0506 148.355 29.1368 147.961 30.1274C147.567 31.1067 146.976 31.9509 146.188 32.6601C145.4 33.3692 144.41 33.9208 143.216 34.3148C142.034 34.7087 140.65 34.9057 139.063 34.9057H135.669V43.5H131.127V19.0848H139.063ZM158.649 36.1045C157.445 36.1608 156.432 36.2677 155.61 36.4253C154.789 36.5717 154.13 36.763 153.635 36.9994C153.139 37.2358 152.785 37.5116 152.571 37.8268C152.357 38.1419 152.25 38.4853 152.25 38.8567C152.25 39.5884 152.464 40.1118 152.892 40.427C153.331 40.7422 153.899 40.8998 154.597 40.8998C155.453 40.8998 156.19 40.7478 156.809 40.4439C157.439 40.1287 158.053 39.6559 158.649 39.0256V36.1045ZM149.093 28.5909C151.085 26.7673 153.483 25.8555 156.286 25.8555C157.299 25.8555 158.205 26.0244 159.004 26.3621C159.803 26.6885 160.479 27.15 161.03 27.7466C161.582 28.332 161.998 29.0355 162.28 29.8572C162.572 30.6789 162.719 31.5794 162.719 32.5588V43.5H160.828C160.434 43.5 160.13 43.4437 159.916 43.3312C159.702 43.2073 159.533 42.9653 159.409 42.6051L159.038 41.3557C158.599 41.7496 158.171 42.0986 157.755 42.4025C157.338 42.6952 156.905 42.9428 156.454 43.1454C156.004 43.348 155.52 43.5 155.002 43.6013C154.496 43.7139 153.933 43.7702 153.314 43.7702C152.582 43.7702 151.907 43.6745 151.288 43.4831C150.669 43.2805 150.134 42.9822 149.684 42.5882C149.233 42.1943 148.885 41.7046 148.637 41.1193C148.389 40.5339 148.265 39.8529 148.265 39.0762C148.265 38.6372 148.339 38.2038 148.485 37.7761C148.631 37.3371 148.868 36.9206 149.194 36.5266C149.532 36.1327 149.965 35.7612 150.494 35.4123C151.023 35.0633 151.671 34.7594 152.436 34.5005C153.213 34.2416 154.113 34.0333 155.137 33.8758C156.162 33.7069 157.332 33.6056 158.649 33.5718V32.5588C158.649 31.3993 158.402 30.5438 157.907 29.9923C157.411 29.4295 156.697 29.1481 155.762 29.1481C155.087 29.1481 154.524 29.2268 154.074 29.3844C153.635 29.542 153.246 29.7221 152.909 29.9247C152.571 30.1161 152.261 30.2906 151.98 30.4482C151.71 30.6058 151.406 30.6846 151.068 30.6846C150.776 30.6846 150.528 30.6114 150.325 30.4651C150.123 30.3075 149.96 30.1274 149.836 29.9247L149.093 28.5909ZM176.169 30.6001C175.697 30.0261 175.179 29.6208 174.616 29.3844C174.064 29.1481 173.468 29.0299 172.826 29.0299C172.196 29.0299 171.627 29.1481 171.121 29.3844C170.614 29.6208 170.181 29.981 169.821 30.4651C169.461 30.9378 169.185 31.5457 168.993 32.2886C168.802 33.0203 168.706 33.887 168.706 34.8888C168.706 35.9019 168.785 36.763 168.943 37.4722C169.112 38.1701 169.348 38.7442 169.652 39.1944C169.956 39.6334 170.327 39.9542 170.766 40.1568C171.205 40.3482 171.695 40.4439 172.235 40.4439C173.102 40.4439 173.839 40.2638 174.447 39.9036C175.055 39.5434 175.629 39.0312 176.169 38.3671V30.6001ZM180.34 18.4094V43.5H177.79C177.239 43.5 176.89 43.2467 176.744 42.7402L176.389 41.0686C175.691 41.8678 174.886 42.5151 173.974 43.0103C173.074 43.5056 172.021 43.7533 170.817 43.7533C169.871 43.7533 169.005 43.5563 168.217 43.1623C167.429 42.7683 166.748 42.1999 166.174 41.457C165.611 40.7028 165.172 39.7741 164.857 38.671C164.553 37.5679 164.401 36.3071 164.401 34.8888C164.401 33.6056 164.575 32.4124 164.924 31.3093C165.273 30.2062 165.774 29.2494 166.427 28.4389C167.08 27.6284 167.862 26.9981 168.774 26.5478C169.686 26.0863 170.71 25.8555 171.847 25.8555C172.815 25.8555 173.642 26.0075 174.329 26.3114C175.016 26.6154 175.629 27.0262 176.169 27.544V18.4094H180.34ZM187.428 26.1764V43.5H183.24V26.1764H187.428ZM188.002 21.1278C188.002 21.4881 187.928 21.8257 187.782 22.1409C187.636 22.4561 187.439 22.7319 187.191 22.9683C186.955 23.2047 186.673 23.396 186.347 23.5424C186.02 23.6774 185.672 23.745 185.3 23.745C184.94 23.745 184.597 23.6774 184.27 23.5424C183.955 23.396 183.679 23.2047 183.443 22.9683C183.206 22.7319 183.015 22.4561 182.869 22.1409C182.734 21.8257 182.666 21.4881 182.666 21.1278C182.666 20.7564 182.734 20.4074 182.869 20.081C183.015 19.7546 183.206 19.4732 183.443 19.2368C183.679 19.0004 183.955 18.8147 184.27 18.6796C184.597 18.5332 184.94 18.4601 185.3 18.4601C185.672 18.4601 186.02 18.5332 186.347 18.6796C186.673 18.8147 186.955 19.0004 187.191 19.2368C187.439 19.4732 187.636 19.7546 187.782 20.081C187.928 20.4074 188.002 20.7564 188.002 21.1278Z" fill="#02B14F"/>
</svg>
